<?xml version="1.0" encoding="UTF-8"?>
<svg version="1.1" viewBox="0 0 2048 1233" width="500" height="200" xmlns="http://www.w3.org/2000/svg">
<path transform="translate(1031,411)" d="m0 0h40l20 50 16 39 1 3 5-11 32-80 1-1h39v136h-33l-1-78-15 41-14 37h-28l-26-70-3-8-1 78h-33z" fill="#ffffff"/>
<path transform="translate(931,409)" d="m0 0h23l13 3 16 8 11 9 9 12 5 10 4 14 1 17-2 14-4 12-6 11-9 10-9 8-16 8-13 3h-23l-15-4-12-6-10-8-7-7-8-13-5-14-1-5v-25l3-12 8-16 11-12 9-7 12-6zm4 30-11 4-10 9-6 12-1 5v19l4 12 6 8 6 5 9 4 5 1h11l13-4 10-9 6-12 2-11-1-15-4-11-7-9-10-6-7-2z" fill="#ffffff"/>
<path transform="translate(1663,409)" d="m0 0h23l13 3 16 8 11 9 9 12 6 13 3 12v25l-3 12-8 16-11 12-9 7-14 7-13 3h-23l-15-4-12-6-9-7-8-8-8-13-5-14-2-16 1-14 4-15 7-13 11-12 9-7 12-6zm4 30-11 4-8 6-6 10-3 9v20l3 10 6 9 7 6 9 4 5 1h11l13-4 10-9 6-12 1-4v-21l-3-10-8-11-10-6-7-2z" fill="#ffffff"/>
<path transform="translate(1249,411)" d="m0 0h39l5 12 23 64 17 47 4 11v2h-35l-4-10-4-12v-2h-51l-3 11-5 13h-35l3-10 22-61 20-55zm19 38-6 16-10 30v2h33l-3-11-13-37z" fill="#ffffff"/>
<path transform="translate(1345,411)" d="m0 0h39l26 39 4-5 14-24 6-10h38l-4 8-14 22-24 38 7 11 29 44 8 12v1h-39l-26-39v-2h-2l-2 5-21 36h-38l2-5 14-22 15-24 11-17-2-5-29-44-12-18z" fill="#ffffff"/>
<path transform="translate(793,409)" d="m0 0h24l15 4 11 7 8 9 4 9 1 5v7h-36l-3-8-4-4-10-2-9 3-2 4v9l4 5 16 7 22 8 12 7 8 9 4 11v14l-3 10-6 9-5 5-9 6-10 4-5 1h-24l-15-4-12-7-8-9-4-8-2-8v-6h35l5 10 3 3 11 2 11-3 2-5v-8l-2-4-10-6-29-10-10-5-9-8-6-12-1-14 2-11 5-9 8-8 14-7z" fill="#ffffff"/>
<path transform="translate(1525,409)" d="m0 0h24l12 3 10 5 9 8 5 8 3 10v7h-36l-3-8-4-4-10-2-9 3-2 4v9l4 5 16 7 22 8 10 6 7 6 5 9 2 7v13l-3 10-6 9-7 7-14 7-9 2h-23l-15-4-12-7-8-9-4-8-2-7v-7h35l5 10 3 3 7 2 9-1 5-3 3-4v-8l-2-5-4-2-12-5-23-8-10-5-9-8-5-9-2-8v-11l3-11 5-8 7-7 14-7z" fill="#ffffff"/>
<path transform="translate(369,425)" d="m0 0h87l4 5 14 23 15 24 14 23 26 42-1 5-7 4-4 1h-14l-10-6-9-10-13-22-12-19-16-26-5-8v-2h-88l2-9 5-12 6-8z" fill="#ffffff"/>
<path transform="translate(391,611)" d="m0 0 6 1 8 7 5 7 1 3v13l-4 12-30 56-12 22 2 6 30 52 10 17v3l-18 3h-10l-9-3-4-5-15-26-14-24-12-20 2-6 17-32 12-22 18-34 15-28z" fill="#ffffff"/>
<path transform="translate(569,422)" d="m0 0h18l8 3 13 23 14 25 12 21 4 8-13 24-13 23-13 24-13 23-15 27h-6l-6-4-7-10-2-6v-8l4-13 14-26 13-23 16-29 1-3-14-26-12-21-15-27 1-3z" fill="#ffffff"/>
<path transform="translate(445,682)" d="m0 0h12l9 5 9 9 16 26 12 19 20 32v2h88l-2 9-8 16-6 7-2 1-36 1h-52l-7-10-16-26-12-19-30-48-9-15 3-5 6-3z" fill="#ffffff"/>
<path transform="translate(302,539)" d="m0 0h119l21 1 1 1v11l-6 12-8 6-10 3-98 1-11 17-24 38-11 17-4-2-9-12-5-10-1-10 12-19 30-48z" fill="#ffffff"/>
<path transform="translate(683,585)" d="m0 0 5 5 8 10 5 10 1 3v7l-34 56-11 18-92 1h-47l-2-2v-10l7-14 10-6 8-2 23-1h21l53-1 15-25 16-26z" fill="#ffffff"/>
<path transform="translate(1104,592)" d="m0 0h19l22 33 17 26 2 2v-60l1-1h18v93h-19l-29-44-11-16-1-1v60l-1 1h-18z" fill="#ffffff"/>
<path transform="translate(1505,591)" d="m0 0h16l12 3 10 6 8 8 5 10v2h-22l-6-7-6-3-5-1h-8l-9 3-6 4-6 9-2 7v12l3 10 6 8 10 5 5 1h8l10-3 6-5 6-12h-32v-15h50l1 1v16l-4 11-6 9-7 7-14 7-11 2h-8l-14-3-11-6-7-6-7-11-4-13v-18l4-12 6-10 10-9 11-5z" fill="#ffffff"/>
<path transform="translate(325,472)" d="m0 0h9l10 3 9 7 3 4 81 1v7l-4 9-6 8-10 7-3 1-58 1-7 8-9 5-4 1h-13l-10-4-8-7-5-9-1-4v-14l4-9 7-8 8-5zm1 15-6 3-5 6-1 2v10l4 7 7 4h9l6-3 4-5 2-5-1-9-4-6-8-4z" fill="#ffffff"/>
<path transform="translate(628,702)" d="m0 0h12l10 4 8 7 5 8 2 6v12l-5 12-8 8-9 4-4 1h-10l-11-4-8-7-2-4h-82l2-11 6-10 8-7 8-4h58l2-4 8-7zm2 15-6 3-5 6-1 3v8l3 6 6 5 3 1h8l6-3 5-6 1-3v-8l-3-6-6-5-3-1z" fill="#ffffff"/>
<path transform="translate(396,716)" d="m0 0h16l12 5 5 4 15 27 12 21 12 3 9 6 6 7 3 7 1 12-2 9-6 9-7 6-10 4h-12l-11-4-7-6-6-10-1-4v-14l3-9-32-56-7-12 1-3zm56 73-6 3-5 6-1 2v10l3 5 6 5 2 1h9l7-4 4-6 1-9-4-8-6-4-3-1z" fill="#ffffff"/>
<path transform="translate(345,593)" d="m0 0 4 2 6 7 4 8 2 13-2 9-19 32-8 13 2 9v14l-4 10-7 8-10 5-4 1h-12l-10-4-8-7-5-8-2-8v-8l3-10 6-8 8-6 10-3 5-1 17-29 17-28zm-45 84-8 4-4 6-1 9 4 8 5 4 3 1h9l6-4 4-4 1-3v-10l-4-6-5-4-3-1z" fill="#ffffff"/>
<path transform="translate(651,513)" d="m0 0h15l9 4 8 7 5 9 1 4v14l-4 9-7 8-6 4-12 3h-4l-2 5-13 20-11 17-15 23-1 2-4-1-7-9-4-10v-17l15-23 13-20 2-3-1-7-1-11 2-9 5-8 5-5 6-4zm7 14-9 3-6 7-1 9 3 7 5 5 6 2 8-1 6-4 4-6v-10l-4-7-6-4z" fill="#ffffff"/>
<path transform="translate(506,395)" d="m0 0 11 1 12 6 6 7 4 9 1 5v7l-3 10-1 5 35 70-2 2-3 1h-17l-10-4-7-5-8-15-8-16-9-19-9-3-10-6-6-7-4-10v-14l4-9 7-8 8-5zm0 15-8 4-4 5-1 2v10l4 7 6 4h11l6-4 4-5 1-9-3-7-7-6z" fill="#ffffff"/>
<path transform="translate(1401,591)" d="m0 0h17l10 3 8 4 10 9 6 9 4 11 1 6v11l-3 12-5 10-9 10-10 6-9 3-6 1h-11l-13-3-11-6-10-10-6-12-2-7v-19l3-10 6-10 6-7 11-7zm1 17-9 4-5 4-5 8-2 8v13l4 11 7 8 8 4 3 1h12l10-4 6-5 5-10 1-3v-17l-4-10-7-8-10-4z" fill="#ffffff"/>
<path transform="translate(1236,591)" d="m0 0h17l13 4 10 7 7 7 7 14 2 10v11l-3 13-7 12-7 7-10 6-9 3-6 1h-11l-13-3-11-6-9-9-6-10-3-11v-18l4-12 7-11 8-7 12-6zm1 17-9 4-5 4-5 9-2 7v12l3 10 4 6 7 6 8 3h12l9-3 7-6 5-9 1-4v-18l-4-9-7-8-10-4z" fill="#ffffff"/>
<path transform="translate(1009,592)" d="m0 0h18v38h40v-38h19v93h-19v-39h-40v39h-18z" fill="#ffffff"/>
<path transform="translate(1210,735)" d="m0 0h41l13 4 9 6 7 8 4 8 2 6 1 15-3 14-5 9-5 6-11 7-9 3-6 1h-38zm18 15v57h17l10-3 6-4 6-9 2-11-1-11-5-10-7-6-7-3z" fill="#ffffff"/>
<path transform="translate(942,591)" d="m0 0h15l11 3 10 5 9 9 6 11v2h-22l-6-8-10-4h-12l-9 4-5 4-5 9-1 4v16l4 11 4 5 9 5 4 1h10l9-3 4-2 2-4 2-3h22l-4 10-9 10-10 6-9 3-15 1-12-2-12-6-10-9-6-10-3-9-1-14 2-13 7-14 10-10 12-6z" fill="#ffffff"/>
<path transform="translate(1702,591)" d="m0 0h16l10 3 9 6 4 6 2 6v6h-20l-4-8-8-3-8 1-5 5v7l4 5 16 6 13 5 6 4 5 6 2 4v15l-5 10-7 6-9 4-6 1h-11l-12-3-9-6-5-6-3-9v-4h20l4 8 4 3h12l6-4 1-2v-7l-5-6-26-9-8-5-6-7-2-13 2-9 4-6 7-6 7-3z" fill="#ffffff"/>
<path transform="translate(836,592)" d="m0 0h54v15h-35v23h31v15h-31l1 24 34 1v15h-53l-1-1z" fill="#ffffff"/>
<path transform="translate(1609,592)" d="m0 0h54v15h-35v23h30l1 1v14h-31v25h35v15h-54z" fill="#ffffff"/>
<path transform="translate(851,735)" d="m0 0h19l10 28 13 38 2-3 15-44 7-19h19l-7 21-17 46-7 19-1 1h-21l-4-9-19-52-9-24z" fill="#ffffff"/>
<path transform="translate(782,735)" d="m0 0h41l11 4 6 5 5 10v15l-5 10-8 6-8 3-24 1-1 33h-17zm17 14v25h20l6-4 2-3v-10l-3-5-6-3z" fill="#ffffff"/>
<path transform="translate(755,592)" d="m0 0h68v15l-24 1-1 77h-18l-1-77-24-1z" fill="#ffffff"/>
<path transform="translate(1306,592)" d="m0 0h18v78h30l1 1v13l-1 1h-48l-1-1v-91z" fill="#ffffff"/>
<path transform="translate(942,735)" d="m0 0h64v14h-23v73h-18v-73h-23z" fill="#ffffff"/>
<path transform="translate(1133,735)" d="m0 0h64v14h-23v73h-17l-1-2v-70l-23-1z" fill="#ffffff"/>
<path transform="translate(1081,735)" d="m0 0h17v73h29v14h-46z" fill="#ffffff"/>
<path transform="translate(1572,592)" d="m0 0h19v93h-19z" fill="#ffffff"/>
<path transform="translate(1023,802)" d="m0 0h7l6 5 1 2v7l-5 6-9 1-6-4-2-4 1-8 4-4z" fill="#ffffff"/>
<path transform="translate(1304,802)" d="m0 0h7l6 5 1 2v7l-5 6-8 1-6-3-3-6 1-7 4-4z" fill="#ffffff"/>
</svg>
